<svg width="112" height="28" viewBox="0 0 112 28" fill="none" xmlns="http://www.w3.org/2000/svg">
<path d="M106.54 25.2331C106.548 25.2592 106.557 25.2841 106.566 25.3087C106.566 25.2805 106.566 25.2528 106.566 25.2246C106.557 25.2287 106.548 25.2303 106.54 25.2331Z" fill="#FF7500"/>
<path d="M80.6557 6.68233C79.6772 6.68233 78.7359 6.82183 77.8416 7.06828C77.5009 7.16316 77.1662 7.27139 76.8422 7.39705C76.8422 6.10968 76.8422 4.8236 76.8422 3.53623C76.8422 3.23978 76.591 3 76.2804 3H71.1022C70.7919 3 70.5402 3.23978 70.5402 3.53623C70.5402 7.78557 70.5402 12.0221 70.5402 16.283C70.5402 16.3217 70.5402 16.3601 70.5402 16.3986C70.5725 21.7063 75.0879 26 80.6554 26C86.2441 26 90.7741 21.676 90.7741 16.3409C90.7743 11.0068 86.2444 6.68233 80.6557 6.68233ZM84.4896 17.5311C84.093 18.7538 83.0539 19.7032 81.7507 20.0302C81.4321 20.1094 81.1008 20.1569 80.7561 20.1569C80.4123 20.1569 80.0802 20.1091 79.7629 20.0302C78.0879 19.6096 76.8505 18.1586 76.8505 16.4273C76.8505 14.3683 78.5997 12.6988 80.7561 12.6988C82.5107 12.6988 83.9958 13.8028 84.4896 15.3238C84.6021 15.6718 84.6631 16.0442 84.6631 16.4273C84.6628 16.812 84.6021 17.1828 84.4896 17.5311Z" fill="#FF7500"/>
<path d="M68.1769 25.2906C68.6723 25.2078 69.039 24.9336 69.039 24.6046C69.039 24.5518 69.0277 18.8756 69.0277 15.9931C69.0277 15.9554 69.0277 15.9167 69.0277 15.8782C68.9944 10.5716 64.4798 6.27734 58.9128 6.27734C53.3231 6.27734 48.7934 10.6018 48.7934 15.9367C48.7934 21.2711 53.3231 25.5948 58.9128 25.5948C59.8902 25.5948 60.8597 25.534 61.7275 25.2088C62.8832 24.7757 62.7174 24.5367 62.7258 24.5326C62.7258 24.561 62.7258 24.589 62.7258 24.6164C62.7301 24.6295 62.7395 24.6398 62.7438 24.6513C62.7706 24.8918 62.9899 25.0985 63.3114 25.2165C63.4479 25.2747 63.5938 25.3181 63.7542 25.3181H63.9062H67.8696H67.9327C67.9717 25.3181 68.0079 25.3106 68.0456 25.3078C68.0735 25.3047 68.1006 25.3024 68.1272 25.2996C68.1442 25.2963 68.1605 25.2934 68.1769 25.2906ZM58.8116 19.5788C57.0565 19.5788 55.5722 18.4735 55.0795 16.9535C54.9667 16.6042 54.9051 16.2344 54.9051 15.8498C54.9051 15.4653 54.9667 15.095 55.0795 14.7463C55.476 13.523 56.5141 12.5744 57.8178 12.2467C58.1356 12.1672 58.4674 12.121 58.8113 12.121C59.1557 12.121 59.4877 12.1674 59.8061 12.2467C61.4809 12.667 62.7177 14.1182 62.7177 15.8498C62.718 17.9093 60.9691 19.5788 58.8116 19.5788Z" fill="#FF7500"/>
<path d="M111.138 25.2906C111.633 25.2078 112 24.9336 112 24.6046C112 24.5518 111.989 18.8756 111.989 15.9931C111.989 15.9554 111.989 15.9167 111.989 15.8782C111.956 10.5716 107.441 6.27734 101.874 6.27734C96.2844 6.27734 91.7547 10.6018 91.7547 15.9367C91.7547 21.2711 96.2844 25.5948 101.874 25.5948C102.851 25.5948 103.821 25.534 104.689 25.2088C105.844 24.7757 105.678 24.5367 105.687 24.5326C105.687 24.561 105.687 24.589 105.687 24.6164C105.691 24.6295 105.7 24.6398 105.705 24.6513C105.731 24.8918 105.95 25.0985 106.272 25.2165C106.408 25.2747 106.554 25.3181 106.715 25.3181H106.867H110.83H110.894C110.933 25.3181 110.969 25.3106 111.007 25.3078C111.034 25.3047 111.062 25.3024 111.088 25.2996C111.105 25.2963 111.122 25.2934 111.138 25.2906ZM101.772 19.5788C100.017 19.5788 98.5332 18.4735 98.0405 16.9535C97.9277 16.6042 97.8659 16.2344 97.8659 15.8498C97.8659 15.4653 97.9277 15.095 98.0405 14.7463C98.4368 13.523 99.4748 12.5744 100.779 12.2467C101.097 12.1672 101.428 12.121 101.772 12.121C102.117 12.121 102.449 12.1674 102.767 12.2467C104.442 12.667 105.678 14.1182 105.678 15.8498C105.678 17.9093 103.93 19.5788 101.772 19.5788Z" fill="#FF7500"/>
<path d="M39.9497 7.39217H38.6892C36.6485 7.39217 34.7766 8.07457 33.3022 9.20833V7.39217C33.3022 6.61051 33.3022 5.91247 33.3022 5.29007C33.3022 5.00823 33.3022 4.73845 33.3022 4.49072C33.3022 4.48867 33.303 4.48765 33.303 4.48662C33.303 4.48585 33.3022 4.48431 33.3022 4.48379C33.3001 4.0904 32.7776 3.77344 32.1339 3.77344H28.1694C27.5241 3.77344 27 4.0922 27 4.48636C27 8.98189 27 19.0934 27 24.5839C27 24.9781 27.5239 25.2973 28.1694 25.2973H32.1339C32.7776 25.2973 33.3001 24.9801 33.3022 24.587C33.3022 24.5849 33.303 24.5842 33.303 24.5836C33.303 24.5829 33.3022 24.5816 33.3022 24.5803C33.3022 23.8984 33.3022 23.1501 33.3022 22.3461C33.3022 22.231 33.3022 22.1056 33.3022 21.9874C33.3022 20.3666 33.3022 18.5658 33.3022 16.7135C33.3022 16.6681 33.3022 16.6233 33.3022 16.5789C33.3022 16.2029 33.3022 15.8254 33.3022 15.4477C33.4449 14.6543 33.8497 13.9465 34.4298 13.4089C35.1317 12.7591 36.0884 12.3562 37.1428 12.3562C38.1981 12.3562 39.1537 12.7591 39.8559 13.4089C40.4373 13.9465 40.84 14.6543 40.9832 15.4477V16.7138V22.3466V23.4999V24.5842C40.9832 24.9783 41.5073 25.2976 42.1526 25.2976H46.1163C46.7632 25.2976 47.2862 24.9783 47.2862 24.5842V15.5982V14.3627C47.286 10.5154 43.9792 7.39217 39.9497 7.39217Z" fill="#FF7500"/>
<path d="M7.50001 0C3.36485 0 0 2.59584 0 5.78594C0 6.30815 0.0982322 6.81196 0.267028 7.29361C2.0764 5.79849 4.64535 4.85734 7.49966 4.85734C10.3536 4.85734 12.9222 5.79849 14.7316 7.29361C14.9004 6.81169 14.9986 6.30815 14.9986 5.78594C14.999 2.59584 11.6352 0 7.50001 0Z" fill="#FF7500"/>
<path d="M14.7323 18.6057C14.6126 18.1937 14.4542 17.797 14.2601 17.4186C14.0702 17.0496 13.8492 16.6983 13.596 16.368C12.2342 14.5927 10.0125 13.4295 7.50031 13.4295C4.98809 13.4295 2.76572 14.5927 1.40394 16.368C1.15109 16.698 0.929719 17.0496 0.740169 17.4186C0.545777 17.797 0.387358 18.1934 0.268025 18.6057C0.0988832 19.1878 0.000648499 19.7977 0.000648499 20.4295C0.000648499 24.2891 3.3655 27.4295 7.50066 27.4295C11.6358 27.4295 15 24.2891 15 20.4295C14.9993 19.7977 14.901 19.1884 14.7323 18.6057Z" fill="#15133C"/>
<path d="M14.7323 10.8209C14.6127 10.4941 14.4542 10.1794 14.2602 9.87897C14.0703 9.58625 13.8496 9.30761 13.5961 9.04588C12.2346 7.63784 10.0126 6.71484 7.5004 6.71484C4.98817 6.71484 2.7658 7.63784 1.40402 9.04588C1.15117 9.30736 0.929803 9.58625 0.740253 9.87923C0.545861 10.1796 0.387097 10.4939 0.267763 10.8209C0.0989673 11.2832 0.000732422 11.7662 0.000732422 12.2676C0.000732422 12.7691 0.099313 13.2526 0.268109 13.7148C0.992756 13.1404 1.83258 12.6469 2.77169 12.2679C3.23691 12.0802 3.72877 11.926 4.23447 11.7946C5.259 11.5285 6.3548 11.3766 7.50005 11.3766C8.6453 11.3766 9.74109 11.5285 10.7653 11.7946C11.2713 11.926 11.7632 12.0799 12.2281 12.2679C13.1672 12.6469 14.0073 13.1404 14.7316 13.7148C14.9004 13.2523 14.9987 12.7691 14.9987 12.2676C14.9987 11.7662 14.9011 11.2829 14.7323 10.8209Z" fill="#12D18E"/>
</svg>
