<svg width="19" height="17" viewBox="0 0 19 17" fill="none" xmlns="http://www.w3.org/2000/svg">
<path fill-rule="evenodd" clip-rule="evenodd" d="M11.4329 9.13838C11.325 9.14625 10.7672 9.17858 9.52294 9.17858C8.53331 9.17858 7.83067 9.14975 7.58417 9.13838C3.7597 8.97497 0.905062 8.32828 0.905062 7.554C0.905062 6.77973 3.7597 6.13391 7.58417 5.96787V8.49432C7.83427 8.5118 8.5504 8.55287 9.54004 8.55287C10.7276 8.55287 11.3223 8.50481 11.4293 8.49519V5.96962C15.2457 6.13479 18.094 6.78147 18.094 7.554C18.094 8.32653 15.2466 8.97322 11.4293 9.13751L11.4329 9.13838ZM11.4329 5.70832V3.44754H16.7589V0H2.25816V3.44754H7.58327V5.70745C3.25498 5.90058 0 6.73341 0 7.7314C0 8.7294 3.25498 9.56135 7.58327 9.75536V17H11.432V9.75274C15.7504 9.55961 19 8.72765 19 7.73053C19 6.73341 15.7531 5.90145 11.432 5.70745L11.4329 5.70832Z" fill="black"/>
</svg>
